<mxfile host="65bd71144e">
    <diagram id="WhaSqua5drfzy-qIFldx" name="Page-1">
        <mxGraphModel dx="856" dy="637" grid="1" gridSize="10" guides="1" tooltips="1" connect="1" arrows="1" fold="1" page="1" pageScale="1" pageWidth="850" pageHeight="1100" math="0" shadow="0">
            <root>
                <mxCell id="0"/>
                <mxCell id="1" parent="0"/>
                <mxCell id="2" value="&lt;font style=&quot;font-size: 48px&quot;&gt;Ryan Reeves&lt;/font&gt;" style="text;strokeColor=none;fillColor=none;html=1;fontSize=24;fontStyle=1;verticalAlign=middle;align=center;" vertex="1" parent="1">
                    <mxGeometry x="150" y="230" width="100" height="40" as="geometry"/>
                </mxCell>
                <mxCell id="3" value="// Portfolio" style="text;strokeColor=none;fillColor=none;html=1;fontSize=24;fontStyle=1;verticalAlign=middle;align=center;" vertex="1" parent="1">
                    <mxGeometry x="120" y="270" width="100" height="40" as="geometry"/>
                </mxCell>
                <mxCell id="7" value="" style="ellipse;whiteSpace=wrap;html=1;aspect=fixed;fontSize=48;" vertex="1" parent="1">
                    <mxGeometry x="70" y="360" width="40" height="40" as="geometry"/>
                </mxCell>
                <mxCell id="8" value="" style="shape=flexArrow;endArrow=classic;html=1;fontSize=48;" edge="1" parent="1">
                    <mxGeometry width="50" height="50" relative="1" as="geometry">
                        <mxPoint x="75" y="379.62" as="sourcePoint"/>
                        <mxPoint x="105" y="379.62" as="targetPoint"/>
                        <Array as="points">
                            <mxPoint x="75" y="379.62"/>
                        </Array>
                    </mxGeometry>
                </mxCell>
                <mxCell id="10" value="&lt;font face=&quot;Lucida Console&quot; style=&quot;font-size: 8px&quot;&gt;View &lt;span style=&quot;font-weight: normal&quot;&gt;the code for this site!&lt;/span&gt;&lt;/font&gt;" style="text;strokeColor=none;fillColor=none;html=1;fontSize=24;fontStyle=1;verticalAlign=middle;align=center;" vertex="1" parent="1">
                    <mxGeometry x="375" y="10" width="100" height="10" as="geometry"/>
                </mxCell>
                <mxCell id="11" value="" style="rounded=0;whiteSpace=wrap;html=1;fontFamily=Lucida Console;fontSize=8;" vertex="1" parent="1">
                    <mxGeometry x="800" width="50" height="620" as="geometry"/>
                </mxCell>
                <mxCell id="14" value="" style="ellipse;whiteSpace=wrap;html=1;aspect=fixed;fontFamily=Lucida Console;fontSize=8;" vertex="1" parent="1">
                    <mxGeometry x="810" y="270" width="30" height="30" as="geometry"/>
                </mxCell>
                <mxCell id="18" value="" style="ellipse;whiteSpace=wrap;html=1;aspect=fixed;fontFamily=Lucida Console;fontSize=8;" vertex="1" parent="1">
                    <mxGeometry x="810" y="230" width="30" height="30" as="geometry"/>
                </mxCell>
                <mxCell id="19" value="" style="ellipse;whiteSpace=wrap;html=1;aspect=fixed;fontFamily=Lucida Console;fontSize=8;" vertex="1" parent="1">
                    <mxGeometry x="810" y="190" width="30" height="30" as="geometry"/>
                </mxCell>
                <mxCell id="20" value="" style="ellipse;whiteSpace=wrap;html=1;aspect=fixed;fontFamily=Lucida Console;fontSize=8;" vertex="1" parent="1">
                    <mxGeometry x="810" y="310" width="30" height="30" as="geometry"/>
                </mxCell>
                <mxCell id="21" value="" style="ellipse;whiteSpace=wrap;html=1;aspect=fixed;fontFamily=Lucida Console;fontSize=8;" vertex="1" parent="1">
                    <mxGeometry x="810" y="350" width="30" height="30" as="geometry"/>
                </mxCell>
            </root>
        </mxGraphModel>
    </diagram>
</mxfile>